<?xml version="1.0" standalone="no"?>
<!DOCTYPE svg PUBLIC "-//W3C//DTD SVG 20010904//EN"
 "http://www.w3.org/TR/2001/REC-SVG-20010904/DTD/svg10.dtd">
<svg version="1.0" xmlns="http://www.w3.org/2000/svg"
 width="250.000000pt" height="250.000000pt" viewBox="0 0 250.000000 250.000000"
 preserveAspectRatio="xMidYMid meet">
<metadata>
Created by potrace 1.14, written by Peter Selinger 2001-2017
</metadata>
<g transform="translate(0.000000,250.000000) scale(0.100000,-0.100000)"
fill="#000000" stroke="none">
<path d="M816 2463 c-1 -2 -20 -5 -41 -8 -47 -6 -105 -50 -118 -91 -12 -36
-10 -34 -35 -39 -47 -9 -102 -71 -102 -114 0 -6 -5 -11 -11 -11 -28 0 -81 -36
-101 -69 -22 -35 -23 -43 -25 -341 -1 -168 -3 -317 -3 -332 0 -18 -5 -28 -15
-28 -8 0 -32 -17 -55 -38 -35 -34 -46 -56 -41 -85 1 -5 -4 -7 -11 -4 -7 2 -30
-4 -51 -15 -63 -32 -78 -79 -78 -251 0 -78 2 -163 5 -190 5 -45 3 -48 -27 -63
-47 -24 -83 -67 -93 -111 -11 -46 -11 -523 0 -573 5 -19 19 -50 33 -67 l24
-33 1175 0 c951 0 1178 2 1188 13 8 7 22 29 32 47 16 30 19 58 19 190 0 152
-3 179 -24 219 -15 27 -60 61 -82 61 -15 0 -19 7 -18 37 3 82 -12 141 -44 176
-18 19 -44 37 -59 41 -32 7 -42 34 -30 78 11 44 7 316 -6 348 -14 37 -62 80
-93 87 -20 4 -30 13 -34 32 -7 34 -49 79 -89 96 l-31 13 0 171 c0 130 3 171
13 171 6 0 13 -1 15 -2 8 -9 68 48 82 79 21 43 27 165 12 228 -10 43 -61 105
-86 105 -22 0 -42 14 -45 31 -7 45 -54 94 -98 103 -19 4 -28 12 -28 25 0 33
-57 89 -103 102 -29 8 -180 12 -480 13 -241 1 -440 0 -441 -1z"/>
</g>
</svg>
